<?xml version="1.0" encoding="UTF-8" standalone="no"?>
<svg width="1370px" height="530px" viewBox="0 0 1370 530" version="1.1" xmlns="http://www.w3.org/2000/svg" xmlns:xlink="http://www.w3.org/1999/xlink" xmlns:sketch="http://www.bohemiancoding.com/sketch/ns">
    <!-- Generator: Sketch 3.3.3 (12072) - http://www.bohemiancoding.com/sketch -->
    <title>hero-ship</title>
    <desc>Created with Sketch.</desc>
    <defs></defs>
    <g id="Page-1" stroke="none" stroke-width="1" fill="none" fill-rule="evenodd" sketch:type="MSPage">
        <g id="hero-ship" sketch:type="MSArtboardGroup">
            <g id="Group" sketch:type="MSLayerGroup" transform="translate(50.000000, 111.000000)">
                <path d="M139.252044,209.946743 C158.412123,194.833068 178.107667,172.747009 195.063475,145.881904 C234.677945,83.1140231 216.606861,0.588042648 216.606861,0.588042648 C216.606861,0.588042648 134.304752,19.8273592 94.6902814,82.5952396 C77.7344733,109.460346 66.2745612,136.740807 60.8805019,160.532613 L139.252044,209.946743 L139.252044,209.946743 Z M175.065706,109.78869 C168.242649,120.599416 153.941164,123.835246 143.125123,117.015541 C132.309081,110.194194 129.070018,95.9013801 135.894718,85.0890123 C142.717776,74.2782861 157.01926,71.042456 167.835302,77.8621609 C178.652986,84.6835074 181.890407,98.9763217 175.065706,109.78869 L175.065706,109.78869 Z M167.795881,105.203366 C163.5056,112.001728 154.512764,114.037461 147.711059,109.747647 C140.909354,105.459474 138.874263,96.471057 143.164544,89.6743362 C147.454825,82.874332 156.447661,80.8402409 163.249366,85.1284135 C170.051071,89.4182279 172.086162,98.4050031 167.795881,105.203366 L167.795881,105.203366 Z M147.568159,31.3473084 L218.564754,76.1120874 L147.568159,31.3473084 Z M67.8021114,137.530474 L157.040613,193.797143 L67.8021114,137.530474 Z" id="Stroke-2" stroke="#9BABC4" stroke-width="2" fill="#EEFAFF" sketch:type="MSShapeGroup"></path>
                <path d="M82.8418578,226.401702 L73.8835145,220.752544 L120.215921,147.341393 L129.174264,152.990551 L82.8418578,226.401702 L82.8418578,226.401702 Z" id="Fill-3" fill="#D5ECF7" sketch:type="MSShapeGroup"></path>
                <path d="M82.8418578,226.401702 L73.8835145,220.752544 L120.215921,147.341393 L129.174264,152.990551 L82.8418578,226.401702 L82.8418578,226.401702 Z" id="Stroke-4" stroke="#9BABC4" stroke-width="2" fill="#BEDBE8" sketch:type="MSShapeGroup"></path>
                <path d="M170.085564,180.358023 C187.828143,191.543062 175.988807,234.927154 153.38599,270.741276 L147.826036,267.236203 C147.826036,267.236203 159.829624,236.035315 162.41989,220.849405 C165.010155,205.663495 149.741222,197.48773 150.767802,200.610281 L170.085564,180.358023 L170.085564,180.358023 Z M74.4921246,120.083916 C56.7511886,108.897236 22.6753197,138.261039 0.0725031103,174.075161 L5.63245762,177.580233 C5.63245762,177.580233 28.6344083,153.31397 41.2309492,144.438832 C53.8274902,135.562052 67.7856862,145.814593 64.5252697,146.233232 L74.4921246,120.083916 L74.4921246,120.083916 Z" id="Stroke-5" stroke="#9BABC4" stroke-width="2" fill="#BEDCE9" sketch:type="MSShapeGroup"></path>
            </g>
        </g>
    </g>
</svg>