<?xml version="1.0" encoding="UTF-8" standalone="no"?>
<svg width="1370px" height="530px" viewBox="0 0 1370 530" version="1.1" xmlns="http://www.w3.org/2000/svg" xmlns:xlink="http://www.w3.org/1999/xlink" xmlns:sketch="http://www.bohemiancoding.com/sketch/ns">
    <!-- Generator: Sketch 3.3.3 (12072) - http://www.bohemiancoding.com/sketch -->
    <title>hero</title>
    <desc>Created with Sketch.</desc>
    <defs></defs>
    <g id="Page-1" stroke="none" stroke-width="1" fill="none" fill-rule="evenodd" sketch:type="MSPage">
        <g id="hero" sketch:type="MSArtboardGroup">
            <g id="Imported-Layers" sketch:type="MSLayerGroup" transform="translate(0.000000, -18.000000)">
                <path d="M0.826728058,18.5101398 L1372.84975,18.5101398 L1372.84975,547.786125 L0.826728058,547.786125 L0.826728058,18.5101398 Z" id="Fill-1" fill="#D5ECF7" sketch:type="MSShapeGroup"></path>
                <g id="Group" transform="translate(50.000000, 129.000000)" sketch:type="MSShapeGroup">
                    <path d="M139.252044,209.946743 C158.412123,194.833068 178.107667,172.747009 195.063475,145.881904 C234.677945,83.1140231 216.606861,0.588042648 216.606861,0.588042648 C216.606861,0.588042648 134.304752,19.8273592 94.6902814,82.5952396 C77.7344733,109.460346 66.2745612,136.740807 60.8805019,160.532613 L139.252044,209.946743 L139.252044,209.946743 Z M175.065706,109.78869 C168.242649,120.599416 153.941164,123.835246 143.125123,117.015541 C132.309081,110.194194 129.070018,95.9013801 135.894718,85.0890123 C142.717776,74.2782861 157.01926,71.042456 167.835302,77.8621609 C178.652986,84.6835074 181.890407,98.9763217 175.065706,109.78869 L175.065706,109.78869 Z M167.795881,105.203366 C163.5056,112.001728 154.512764,114.037461 147.711059,109.747647 C140.909354,105.459474 138.874263,96.471057 143.164544,89.6743362 C147.454825,82.874332 156.447661,80.8402409 163.249366,85.1284135 C170.051071,89.4182279 172.086162,98.4050031 167.795881,105.203366 L167.795881,105.203366 Z M147.568159,31.3473084 L218.564754,76.1120874 L147.568159,31.3473084 Z M67.8021114,137.530474 L157.040613,193.797143 L67.8021114,137.530474 Z" id="Stroke-2" stroke="#9BABC4" stroke-width="2" fill="#EEFAFF"></path>
                    <path d="M82.8418578,226.401702 L73.8835145,220.752544 L120.215921,147.341393 L129.174264,152.990551 L82.8418578,226.401702 L82.8418578,226.401702 Z" id="Fill-3" fill="#D5ECF7"></path>
                    <path d="M82.8418578,226.401702 L73.8835145,220.752544 L120.215921,147.341393 L129.174264,152.990551 L82.8418578,226.401702 L82.8418578,226.401702 Z" id="Stroke-4" stroke="#9BABC4" stroke-width="2" fill="#BEDBE8"></path>
                    <path d="M170.085564,180.358023 C187.828143,191.543062 175.988807,234.927154 153.38599,270.741276 L147.826036,267.236203 C147.826036,267.236203 159.829624,236.035315 162.41989,220.849405 C165.010155,205.663495 149.741222,197.48773 150.767802,200.610281 L170.085564,180.358023 L170.085564,180.358023 Z M74.4921246,120.083916 C56.7511886,108.897236 22.6753197,138.261039 0.0725031103,174.075161 L5.63245762,177.580233 C5.63245762,177.580233 28.6344083,153.31397 41.2309492,144.438832 C53.8274902,135.562052 67.7856862,145.814593 64.5252697,146.233232 L74.4921246,120.083916 L74.4921246,120.083916 Z" id="Stroke-5" stroke="#9BABC4" stroke-width="2" fill="#BEDCE9"></path>
                </g>
                <g id="Group" transform="translate(225.000000, 388.000000)" sketch:type="MSShapeGroup">
                    <path d="M0.476716547,159.778226 C143.07617,59.1881398 317.103649,0.0968458781 504.94823,0.0968458781 C692.792812,0.0968458781 866.822268,59.1901147 1009.42172,159.780201" id="Stroke-6" stroke="#FFFFFF" stroke-width="2" fill="#D5ECF6"></path>
                    <path d="M480.712452,21.2599857 C481.21065,26.6534659 470.491473,32.052871 456.767289,33.3187885 C443.045082,34.5847061 431.515344,31.2392079 431.017145,25.8457276 C430.518947,20.4522473 441.238124,15.0528423 454.962308,13.7869247 C468.684515,12.5210072 480.214253,15.8665054 480.712452,21.2599857 L480.712452,21.2599857 Z" id="Fill-7" fill="#D5ECF7"></path>
                    <path d="M88.280259,114.382935 C90.2631683,119.422907 81.4735223,127.593111 68.6468863,132.629133 C55.8202504,137.665154 43.8140604,137.661204 41.8311511,132.619258 C39.8482417,127.579287 48.6378878,119.409082 61.4645237,114.373061 C74.2911597,109.337039 86.2953727,109.340989 88.280259,114.382935 L88.280259,114.382935 Z" id="Fill-10" fill="#D5ECF7"></path>
                    <path d="M88.280259,114.382935 C90.2631683,119.422907 81.4735223,127.593111 68.6468863,132.629133 C55.8202504,137.665154 43.8140604,137.661204 41.8311511,132.619258 C39.8482417,127.579287 48.6378878,119.409082 61.4645237,114.373061 C74.2911597,109.337039 86.2953727,109.340989 88.280259,114.382935 L88.280259,114.382935 Z" id="Stroke-11" stroke="#FFFFFF" stroke-width="2"></path>
                    <path d="M41.8311511,132.619258 L41.8212662,146.329086 M87.914518,114.043251 L99.7012633,121.066032" id="Stroke-12" stroke="#FFFFFF" stroke-width="2"></path>
                    <path d="M901.203899,95.0327634 C896.745813,109.256068 859.531171,110.277097 818.079865,97.3137849 C776.630535,84.352448 746.64175,62.312448 751.099836,48.0911183 C755.555945,33.8678136 792.772564,32.8467849 834.221894,45.8081219 C875.671223,58.7714337 905.660009,80.8114337 901.203899,95.0327634 L901.203899,95.0327634 Z" id="Fill-13" fill="#D5ECF7"></path>
                    <path d="M901.203899,95.0327634 C896.745813,109.256068 859.531171,110.277097 818.079865,97.3137849 C776.630535,84.352448 746.64175,62.312448 751.099836,48.0911183 C755.555945,33.8678136 792.772564,32.8467849 834.221894,45.8081219 C875.671223,58.7714337 905.660009,80.8114337 901.203899,95.0327634 L901.203899,95.0327634 Z" id="Stroke-14" stroke="#FFFFFF" stroke-width="2"></path>
                    <path d="M751.099836,48.0911183 C751.099836,48.0911183 746.89678,52.0784624 738.079456,60.4501075 C729.260155,68.8197778 717.627614,69.4635986 717.627614,69.4635986 M901.882003,91.6912151 C901.882003,91.6912151 902.718265,97.4204301 904.475799,109.445659 C906.231355,121.470889 914.981462,129.15724 914.981462,129.15724" id="Stroke-15" stroke="#FFFFFF" stroke-width="2"></path>
                    <g id="Fill-16-+-Stroke-18" transform="translate(246.500000, 55.500000) rotate(-4.000000) translate(-246.500000, -55.500000) translate(176.000000, 27.000000)">
                        <path d="M120.946377,11.1807706 C122.964872,21.3614337 100.547914,34.3760932 70.8754446,40.2494767 C41.2049525,46.1208853 15.514118,42.6272688 13.493646,32.4466057 C11.4751511,22.2659427 33.8921094,9.25128315 63.5645784,3.37987455 C93.2350705,-2.49350896 118.927882,1.00010753 120.946377,11.1807706 L120.946377,11.1807706 Z" id="Fill-16" fill="#D5ECF7"></path>
                        <path d="M13.493646,32.4466057 C13.493646,32.4466057 12.2540806,36.2838566 9.65435396,44.3395161 C7.05462734,52.3932007 0.154972662,56.6590072 0.154972662,56.6590072 M120.246527,8.91159857 C120.246527,8.91159857 122.668325,12.1366272 127.755091,18.9046452 C132.841856,25.6726631 140.755701,27.459957 140.755701,27.459957" id="Stroke-18" stroke="#FFFFFF" stroke-width="2"></path>
                        <path d="M120.946377,11.1807706 C122.964872,21.3614337 100.547914,34.3760932 70.8754446,40.2494767 C41.2049525,46.1208853 15.514118,42.6272688 13.493646,32.4466057 C11.4751511,22.2659427 33.8921094,9.25128315 63.5645784,3.37987455 C93.2350705,-2.49350896 118.927882,1.00010753 120.946377,11.1807706 L120.946377,11.1807706 Z" id="Stroke-17" stroke="#FFFFFF" stroke-width="2"></path>
                    </g>
                </g>
                <path d="M1131.10483,142.48909 C1131.10483,146.474459 1127.87049,149.707387 1123.87897,149.707387 C1119.88745,149.707387 1116.65114,146.474459 1116.65114,142.48909 C1116.65114,138.501746 1119.88745,135.268817 1123.87897,135.268817 C1127.87049,135.268817 1131.10483,138.501746 1131.10483,142.48909" id="Fill-19" fill="#FFFFFF" sketch:type="MSShapeGroup"></path>
                <path d="M1324.21213,54.9116882 C1324.21213,58.8990323 1320.97581,62.1299857 1316.98627,62.1299857 C1312.99475,62.1299857 1309.75844,58.8990323 1309.75844,54.9116882 C1309.75844,50.9243441 1312.99475,47.6933907 1316.98627,47.6933907 C1320.97581,47.6933907 1324.21213,50.9243441 1324.21213,54.9116882" id="Fill-20" fill="#FFFFFF" sketch:type="MSShapeGroup"></path>
                <path d="M1351.88982,301.279785 C1351.88982,305.267129 1348.65351,308.500057 1344.66397,308.500057 C1340.67245,308.500057 1337.43614,305.267129 1337.43614,301.279785 C1337.43614,297.292441 1340.67245,294.061487 1344.66397,294.061487 C1348.65351,294.061487 1351.88982,297.292441 1351.88982,301.279785" id="Fill-21" fill="#FFFFFF" sketch:type="MSShapeGroup"></path>
                <path d="M1222.72789,238.367039 C1222.72789,242.354384 1219.49158,245.587312 1215.50006,245.587312 C1211.50854,245.587312 1208.2742,242.354384 1208.2742,238.367039 C1208.2742,234.379695 1211.50854,231.148742 1215.50006,231.148742 C1219.49158,231.148742 1222.72789,234.379695 1222.72789,238.367039" id="Fill-22" fill="#FFFFFF" sketch:type="MSShapeGroup"></path>
                <path d="M492.564524,73.3889498 C492.564524,77.3762939 489.32821,80.6072473 485.336691,80.6072473 C481.345171,80.6072473 478.108858,77.3762939 478.108858,73.3889498 C478.108858,69.4016057 481.345171,66.1686774 485.336691,66.1686774 C489.32821,66.1686774 492.564524,69.4016057 492.564524,73.3889498" id="Fill-23" fill="#FFFFFF" sketch:type="MSShapeGroup"></path>
                <path d="M522.072904,47.6933907 C522.072904,51.6787599 518.83659,54.9116882 514.845071,54.9116882 C510.855528,54.9116882 507.619214,51.6787599 507.619214,47.6933907 C507.619214,43.7060466 510.855528,40.4731183 514.845071,40.4731183 C518.83659,40.4731183 522.072904,43.7060466 522.072904,47.6933907" id="Fill-24" fill="#FFFFFF" sketch:type="MSShapeGroup"></path>
                <path d="M421.721479,40.4731183 C421.721479,44.4604624 418.485165,47.6933907 414.493646,47.6933907 C410.504104,47.6933907 407.26779,44.4604624 407.26779,40.4731183 C407.26779,36.4857742 410.504104,33.2548208 414.493646,33.2548208 C418.485165,33.2548208 421.721479,36.4857742 421.721479,40.4731183" id="Fill-25" fill="#FFFFFF" sketch:type="MSShapeGroup"></path>
                <path d="M153.50284,113.566527 C153.50284,117.553871 150.266527,120.786799 146.276984,120.786799 C142.285465,120.786799 139.049151,117.553871 139.049151,113.566527 C139.049151,109.579183 142.285465,106.348229 146.276984,106.348229 C150.266527,106.348229 153.50284,109.579183 153.50284,113.566527" id="Fill-26" fill="#FFFFFF" sketch:type="MSShapeGroup"></path>
                <path d="M65.5371856,186.709308 C65.5371856,190.696652 62.3008719,193.927606 58.3093525,193.927606 C54.3178331,193.927606 51.0815194,190.696652 51.0815194,186.709308 C51.0815194,182.721964 54.3178331,179.489036 58.3093525,179.489036 C62.3008719,179.489036 65.5371856,182.721964 65.5371856,186.709308" id="Fill-27" fill="#FFFFFF" sketch:type="MSShapeGroup"></path>
                <path d="M1269.33911,216.927412 C1269.33911,227.127824 1261.06151,235.394799 1250.85041,235.394799 C1240.64129,235.394799 1232.36566,227.127824 1232.36566,216.927412 C1232.36566,206.728975 1240.64129,198.460025 1250.85041,198.460025 C1261.06151,198.460025 1269.33911,206.728975 1269.33911,216.927412" id="Fill-28" fill="#FFFFFF" sketch:type="MSShapeGroup"></path>
                <path d="M1082.1845,18.5101398 C1082.1845,28.710552 1073.90689,36.9775269 1063.69777,36.9775269 C1053.48866,36.9775269 1045.21105,28.710552 1045.21105,18.5101398 C1045.21105,8.31170251 1053.48866,0.0427526882 1063.69777,0.0427526882 C1073.90689,0.0427526882 1082.1845,8.31170251 1082.1845,18.5101398" id="Fill-29" fill="#FFFFFF" sketch:type="MSShapeGroup"></path>
                <path d="M407.825298,355.329133 C407.825298,365.529545 399.547689,373.79652 389.338573,373.79652 C379.127479,373.79652 370.851847,365.529545 370.851847,355.329133 C370.851847,345.130695 379.127479,336.861746 389.338573,336.861746 C399.547689,336.861746 407.825298,345.130695 407.825298,355.329133" id="Fill-30" fill="#FFFFFF" sketch:type="MSShapeGroup"></path>
            </g>
        </g>
    </g>
</svg>